<svg xmlns="http://www.w3.org/2000/svg" viewBox="0 0 320 200" width="320" height="200" fill="none"><rect width="320" height="200" fill="#181613"/><rect x="80" y="22" width="160" height="156" rx="10" fill="#0E0D0B" stroke="#2C2924"/><rect x="96" y="38" width="60" height="8" rx="3" fill="#F4F2EC"/><circle cx="214" cy="42" r="6" fill="#2C2924"/><rect x="96" y="66" width="20" height="16" rx="3" fill="#1F1C18" stroke="#2C2924"/><rect x="122" y="66" width="20" height="16" rx="3" fill="#1F1C18" stroke="#2C2924"/><rect x="148" y="66" width="20" height="16" rx="3" fill="#1F1C18" stroke="#2C2924"/><rect x="174" y="66" width="20" height="16" rx="3" fill="#1F1C18" stroke="#2C2924"/><rect x="200" y="66" width="20" height="16" rx="3" fill="#1F1C18" stroke="#2C2924"/><rect x="96" y="88" width="20" height="16" rx="3" fill="#1F1C18" stroke="#2C2924"/><rect x="122" y="88" width="20" height="16" rx="3" fill="#1F1C18" stroke="#2C2924"/><rect x="148" y="88" width="20" height="16" rx="3" fill="#FF5A1F" stroke="#2C2924"/><rect x="174" y="88" width="20" height="16" rx="3" fill="#1F1C18" stroke="#2C2924"/><rect x="200" y="88" width="20" height="16" rx="3" fill="#1F1C18" stroke="#2C2924"/><rect x="96" y="110" width="20" height="16" rx="3" fill="#1F1C18" stroke="#2C2924"/><rect x="122" y="110" width="20" height="16" rx="3" fill="#1F1C18" stroke="#2C2924"/><rect x="148" y="110" width="20" height="16" rx="3" fill="#1F1C18" stroke="#2C2924"/><rect x="174" y="110" width="20" height="16" rx="3" fill="#1F1C18" stroke="#2C2924"/><rect x="200" y="110" width="20" height="16" rx="3" fill="#1F1C18" stroke="#2C2924"/><rect x="96" y="132" width="20" height="16" rx="3" fill="#1F1C18" stroke="#2C2924"/><rect x="122" y="132" width="20" height="16" rx="3" fill="#1F1C18" stroke="#2C2924"/><rect x="148" y="132" width="20" height="16" rx="3" fill="#1F1C18" stroke="#2C2924"/><rect x="174" y="132" width="20" height="16" rx="3" fill="#1F1C18" stroke="#2C2924"/><rect x="200" y="132" width="20" height="16" rx="3" fill="#1F1C18" stroke="#2C2924"/><rect x="96" y="150" width="128" height="16" rx="8" fill="#FF5A1F"/></svg>
